<svg height='100px' width='100px'  fill="#000000" xmlns="http://www.w3.org/2000/svg" xmlns:xlink="http://www.w3.org/1999/xlink" version="1.1" x="0px" y="0px" viewBox="0 0 52 52" style="enable-background:new 0 0 52 52;" xml:space="preserve"><path d="M48.8,8C48.8,8,48.8,8,48.8,8C0.8,21.7,2.2,20.5,2,21.7c-0.2,1.2,0.7,0.9,9.6,7.2l3.2,14.3c0,0,0,0.1,0,0.1  c0,0.1,0,0.1,0.1,0.2c0,0,0.1,0.1,0.1,0.1c0,0,0.1,0.1,0.1,0.1c0,0,0.1,0.1,0.1,0.1c0,0,0,0,0.1,0.1c0,0,0.1,0,0.1,0  c0,0,0.1,0,0.1,0c0.1,0,0.2,0.1,0.3,0.1c0,0,0,0,0,0s0,0,0,0c0,0,0,0,0,0c0.1,0,0.2,0,0.3-0.1c0,0,0,0,0.1,0c0.1,0,0.2-0.1,0.2-0.2  c0,0,0,0,0,0l7-6.8c9.4,6.3,11,8.1,11.7,6.5C50.3,8.4,50,9.4,50,9C50,7.7,48.5,8,48.8,8z M5.4,22.2l35-9.8L12.6,27.1L5.4,22.2z   M15.7,38l-1.7-7.5c0.1,0.1,2.9,1.9,2.7,1.8L15.7,38z M14.5,28.4l8.8-4.7l14.2-7.5L17.9,30.7C17.8,30.6,14.3,28.2,14.5,28.4z   M17.4,40.1l1.2-6.5c0.1,0.1,3.5,2.3,3.3,2.2L17.4,40.1z M33.9,41.5c-0.9-0.6-11.5-7.8-14.3-9.6l27-19.9L33.9,41.5z"></path></svg>