<?xml version="1.0" encoding="UTF-8"?>
<svg width="100pt" height="100pt" version="1.1" viewBox="0 0 100 100" xmlns="http://www.w3.org/2000/svg">
 <path d="m69.828 64.172c1.5625 1.5625 1.5625 4.0938 0 5.6562s-4.0938 1.5625-5.6562 0l-8.2539-8.2539c-0.58594-0.58594-1.6445-0.73438-2.3828-0.33984 0 0 0.10156-0.023437-0.54297 0.26562-2.1328 0.96484-4.5 1.5-6.9922 1.5-9.3906 0-17-7.6094-17-17s7.6094-17 17-17 17 7.6094 17 17c0 2.5-0.53906 4.875-1.5078 7.0117-0.28906 0.63672-0.26172 0.52734-0.26172 0.52734-0.39453 0.72656-0.24219 1.793 0.34375 2.3789zm-23.828-8.6719c5.2461 0 9.5-4.2539 9.5-9.5s-4.2539-9.5-9.5-9.5-9.5 4.2539-9.5 9.5 4.2539 9.5 9.5 9.5z"/>
</svg>
